<svg width="40" height="40" viewBox="0 0 40 40" fill="none" xmlns="http://www.w3.org/2000/svg">
<path d="M14.4502 23.3333H6.66683C4.8335 23.3333 3.3335 24.8333 3.3335 26.6666V36.6666H14.4502V23.3333Z" stroke="#6A4242" stroke-width="2" stroke-miterlimit="10" stroke-linecap="round" stroke-linejoin="round"/>
<path d="M22.2169 16.6667H17.7669C15.9336 16.6667 14.4336 18.1667 14.4336 20.0001V36.6668H25.5503V20.0001C25.5503 18.1667 24.0669 16.6667 22.2169 16.6667Z" stroke="#6A4242" stroke-width="2" stroke-miterlimit="10" stroke-linecap="round" stroke-linejoin="round"/>
<path d="M33.3336 28.3333H25.5503V36.6666H36.667V31.6666C36.667 29.8333 35.167 28.3333 33.3336 28.3333Z" stroke="#6A4242" stroke-width="2" stroke-miterlimit="10" stroke-linecap="round" stroke-linejoin="round"/>
<path d="M20.8671 3.44995L21.7504 5.21661C21.867 5.46661 22.1837 5.69994 22.4504 5.73327L24.0504 5.99995C25.067 6.16661 25.317 6.91658 24.5837 7.63325L23.3337 8.88325C23.117 9.09991 23.0004 9.49993 23.067 9.78326L23.417 11.3166C23.7004 12.5333 23.0504 13 21.9837 12.3666L20.4837 11.4833C20.2171 11.3166 19.7671 11.3166 19.5004 11.4833L18.0004 12.3666C16.9337 13 16.2837 12.5333 16.567 11.3166L16.9171 9.78326C16.9837 9.49993 16.8671 9.08325 16.6504 8.88325L15.417 7.64993C14.6837 6.9166 14.917 6.18325 15.9504 6.01658L17.5504 5.74996C17.817 5.69996 18.1337 5.46663 18.2504 5.2333L19.1337 3.46658C19.617 2.49991 20.3837 2.49995 20.8671 3.44995Z" stroke="#6A4242" stroke-width="2" stroke-linecap="round" stroke-linejoin="round"/>
</svg>
