<svg width="40" height="40" viewBox="0 0 40 40" fill="none" xmlns="http://www.w3.org/2000/svg">
<path d="M15.0501 36.1501L18.9334 32.8834C19.5167 32.3834 20.4834 32.3834 21.0667 32.8834L24.9501 36.1501C25.8501 36.6001 26.9501 36.1501 27.2834 35.1834L28.0167 32.9668C28.2001 32.4334 28.0167 31.6501 27.6167 31.2501L23.8334 27.4501C23.5501 27.1834 23.3334 26.6501 23.3334 26.2668V21.5168C23.3334 20.8168 23.8501 20.4834 24.5001 20.7501L32.6834 24.2834C33.9667 24.8334 35.0167 24.1501 35.0167 22.7501V20.6001C35.0167 19.4834 34.1834 18.2001 33.1501 17.7668L23.8334 13.7501C23.5667 13.6334 23.3334 13.2834 23.3334 12.9834V7.98343C23.3334 6.41676 22.1834 4.56676 20.7834 3.8501C20.2834 3.6001 19.7001 3.6001 19.2001 3.8501C17.8001 4.56676 16.6501 6.43343 16.6501 8.0001V13.0001C16.6501 13.3001 16.4167 13.6501 16.1501 13.7668L6.85007 17.7834C5.81673 18.2001 4.9834 19.4834 4.9834 20.6001V22.7501C4.9834 24.1501 6.0334 24.8334 7.31673 24.2834L15.5001 20.7501C16.1334 20.4668 16.6667 20.8168 16.6667 21.5168V26.2668C16.6667 26.6501 16.4501 27.1834 16.1834 27.4501L12.4001 31.2501C12.0001 31.6501 11.8167 32.4168 12.0001 32.9668L12.7334 35.1834C13.0334 36.1501 14.1334 36.6168 15.0501 36.1501Z" stroke="#6A4242" stroke-width="2" stroke-linecap="round" stroke-linejoin="round"/>
</svg>
