<svg width="40" height="40" viewBox="0 0 40 40" fill="none" xmlns="http://www.w3.org/2000/svg">
<path d="M30.8332 32.5H24.1665" stroke="#6A4242" stroke-width="2" stroke-linecap="round" stroke-linejoin="round"/>
<path d="M27.5 35.8334V29.1667" stroke="#6A4242" stroke-width="2" stroke-linecap="round" stroke-linejoin="round"/>
<path d="M20.2668 18.1166C20.1002 18.0999 19.9002 18.0999 19.7168 18.1166C15.7502 17.9833 12.6002 14.7333 12.6002 10.7333C12.5835 6.64992 15.9002 3.33325 19.9835 3.33325C24.0668 3.33325 27.3835 6.64992 27.3835 10.7333C27.3835 14.7333 24.2168 17.9833 20.2668 18.1166Z" stroke="#6A4242" stroke-width="2" stroke-linecap="round" stroke-linejoin="round"/>
<path d="M19.9834 36.3499C16.9501 36.3499 13.9334 35.5832 11.6334 34.0499C7.60007 31.3499 7.60007 26.9499 11.6334 24.2666C16.2167 21.1999 23.7334 21.1999 28.3167 24.2666" stroke="#6A4242" stroke-width="2" stroke-linecap="round" stroke-linejoin="round"/>
</svg>
