<svg width="159" height="159" viewBox="0 0 159 159" fill="none" xmlns="http://www.w3.org/2000/svg">
<path d="M137.56 83.335C137.611 82.5567 137.785 81.8346 138.081 81.1685C138.39 80.5033 138.817 79.9422 139.365 79.4851L140.438 80.1689C139.9 80.6747 139.505 81.1899 139.254 81.7146C139.003 82.2393 138.859 82.783 138.822 83.3458C138.78 83.9924 138.865 84.5271 139.078 84.95C139.302 85.3736 139.654 85.6012 140.133 85.6327C140.48 85.6555 140.745 85.5646 140.927 85.3601C141.108 85.1676 141.265 84.8833 141.398 84.5072C141.543 84.1319 141.704 83.6855 141.883 83.1681C142.222 82.2163 142.594 81.4951 142.999 81.0046C143.415 80.5269 143.988 80.312 144.719 80.36C145.605 80.4182 146.265 80.7983 146.7 81.5004C147.146 82.2151 147.335 83.0994 147.266 84.1531C147.173 85.5661 146.674 86.6517 145.771 87.4101L144.722 86.6197C145.525 85.9388 145.961 85.0596 146.032 83.9819C146.053 83.6586 146.032 83.3385 145.969 83.0217C145.918 82.7056 145.797 82.4391 145.607 82.2222C145.428 82.0061 145.16 81.8862 144.8 81.8626C144.357 81.8335 144.028 81.9922 143.813 82.3389C143.598 82.6855 143.366 83.1994 143.116 83.8805C142.866 84.5736 142.623 85.1709 142.385 85.6724C142.147 86.1859 141.857 86.5757 141.515 86.8419C141.173 87.108 140.714 87.2222 140.139 87.1844C139.253 87.1262 138.581 86.7453 138.122 86.0417C137.675 85.3389 137.488 84.4367 137.56 83.335Z" fill="white"/>
<path d="M136.249 92.3767C136.449 91.4623 136.842 90.7009 137.43 90.0923C138.029 89.4864 138.736 89.0636 139.55 88.8239C140.364 88.5843 141.199 88.558 142.055 88.7451C142.922 88.9348 143.671 89.3013 144.302 89.8445C144.932 90.3878 145.381 91.0572 145.65 91.8529C145.93 92.6511 145.968 93.5133 145.766 94.4394C145.568 95.3421 145.192 96.0826 144.635 96.6611C144.088 97.2539 143.438 97.6401 142.687 97.8196L142.543 96.2035C143.028 96.0639 143.433 95.8087 143.76 95.438C144.099 95.0698 144.324 94.6278 144.437 94.112C144.56 93.5493 144.526 93.0014 144.336 92.4684C144.143 91.9471 143.818 91.4953 143.361 91.1129C142.916 90.733 142.365 90.4713 141.708 90.3277C141.064 90.1868 140.448 90.1934 139.862 90.3477C139.284 90.5162 138.793 90.7958 138.388 91.1863C137.981 91.5886 137.716 92.0711 137.593 92.6338C137.513 92.9972 137.502 93.3571 137.559 93.7136C137.614 94.0817 137.72 94.412 137.877 94.7043C138.043 95.0109 138.245 95.2393 138.483 95.3895L137.695 96.8018C137.086 96.386 136.642 95.7732 136.365 94.9632C136.085 94.165 136.046 93.3028 136.249 92.3767Z" fill="white"/>
<path d="M140.972 104.685C141.231 103.936 141.279 103.207 141.115 102.496C140.958 101.801 140.602 101.219 140.044 100.749L134.596 98.7732L135.135 97.284L143.969 100.487L143.466 101.874L141.418 101.132C141.917 101.657 142.262 102.236 142.455 102.867C142.654 103.514 142.676 104.122 142.521 104.691C142.48 104.804 142.445 104.9 142.417 104.979C142.388 105.058 142.358 105.123 142.326 105.176L140.972 104.685Z" fill="white"/>
<path d="M130.939 106.669C131.379 105.843 131.964 105.217 132.694 104.79C133.43 104.379 134.214 104.171 135.046 104.166C135.889 104.166 136.691 104.37 137.454 104.776C138.227 105.188 138.843 105.741 139.303 106.434C139.768 107.144 140.03 107.916 140.089 108.75C140.153 109.599 139.968 110.432 139.533 111.248C139.093 112.074 138.505 112.692 137.77 113.102C137.04 113.529 136.253 113.742 135.41 113.742C134.572 113.758 133.767 113.56 132.994 113.148C132.231 112.742 131.618 112.184 131.153 111.474C130.693 110.78 130.428 110.014 130.359 109.174C130.3 108.341 130.493 107.506 130.939 106.669ZM136.676 106.197C136.104 105.893 135.52 105.738 134.925 105.733C134.323 105.739 133.775 105.875 133.28 106.142C132.795 106.414 132.417 106.804 132.146 107.312C131.875 107.821 131.767 108.355 131.823 108.914C131.873 109.485 132.065 110.016 132.402 110.508C132.743 111.016 133.199 111.422 133.771 111.727C134.343 112.031 134.93 112.181 135.531 112.175C136.127 112.179 136.675 112.043 137.177 111.766C137.672 111.5 138.055 111.113 138.326 110.604C138.597 110.096 138.699 109.559 138.633 108.994C138.578 108.434 138.385 107.903 138.054 107.4C137.718 106.909 137.259 106.508 136.676 106.197Z" fill="white"/>
<path d="M138.648 119.654L137.735 120.948L128.984 114.773C128.563 114.476 128.261 114.351 128.08 114.4C127.899 114.448 127.75 114.556 127.632 114.723C127.487 114.928 127.368 115.138 127.276 115.352C127.193 115.573 127.132 115.765 127.091 115.927L125.887 115.386C125.951 115.108 126.057 114.801 126.206 114.465C126.354 114.129 126.508 113.849 126.667 113.623C127.02 113.123 127.443 112.826 127.934 112.733C128.419 112.649 128.917 112.787 129.427 113.147L138.648 119.654Z" fill="white"/>
<path d="M135.362 124.1L134.352 125.32L126.099 118.494C125.702 118.165 125.411 118.018 125.227 118.053C125.042 118.087 124.885 118.183 124.755 118.34C124.595 118.534 124.46 118.735 124.352 118.941C124.253 119.155 124.177 119.341 124.123 119.499L122.964 118.868C123.049 118.595 123.179 118.298 123.353 117.974C123.527 117.651 123.702 117.383 123.877 117.17C124.268 116.699 124.711 116.435 125.209 116.379C125.699 116.333 126.184 116.509 126.665 116.907L135.362 124.1Z" fill="white"/>
<path d="M116.68 124.202C117.279 123.703 117.923 123.332 118.609 123.088C119.304 122.853 120.005 122.776 120.714 122.858L120.957 124.107C120.22 124.066 119.575 124.134 119.021 124.314C118.468 124.493 117.975 124.764 117.542 125.125C117.044 125.539 116.715 125.969 116.555 126.415C116.402 126.869 116.48 127.281 116.787 127.65C117.01 127.918 117.258 128.047 117.531 128.038C117.795 128.036 118.11 127.954 118.474 127.791C118.846 127.638 119.281 127.448 119.778 127.22C120.702 126.811 121.481 126.584 122.116 126.539C122.749 126.512 123.299 126.779 123.768 127.342C124.336 128.024 124.515 128.765 124.306 129.564C124.095 130.38 123.584 131.125 122.773 131.801C121.684 132.707 120.554 133.094 119.382 132.961L119.233 131.657C120.279 131.769 121.217 131.48 122.047 130.789C122.296 130.582 122.514 130.346 122.7 130.082C122.893 129.827 123.003 129.556 123.03 129.268C123.063 128.99 122.965 128.713 122.735 128.436C122.451 128.095 122.109 127.966 121.709 128.049C121.31 128.131 120.777 128.317 120.112 128.606C119.437 128.902 118.837 129.137 118.31 129.31C117.773 129.491 117.291 129.549 116.862 129.485C116.433 129.42 116.035 129.166 115.666 128.724C115.098 128.041 114.911 127.291 115.105 126.474C115.307 125.666 115.832 124.909 116.68 124.202Z" fill="white"/>
<path d="M109.323 129.419C110.122 128.931 110.944 128.689 111.79 128.693C112.642 128.707 113.436 128.925 114.172 129.348C114.908 129.77 115.504 130.355 115.961 131.103C116.423 131.861 116.676 132.655 116.72 133.486C116.763 134.318 116.59 135.105 116.201 135.849C115.818 136.603 115.222 137.227 114.412 137.721C113.624 138.203 112.828 138.442 112.026 138.44C111.219 138.455 110.491 138.252 109.841 137.833L110.909 136.612C111.346 136.866 111.811 136.983 112.304 136.962C112.804 136.952 113.28 136.81 113.73 136.535C114.222 136.235 114.594 135.831 114.848 135.325C115.091 134.825 115.193 134.278 115.153 133.684C115.12 133.099 114.928 132.521 114.578 131.947C114.234 131.384 113.804 130.944 113.287 130.626C112.766 130.326 112.224 130.164 111.662 130.142C111.09 130.126 110.558 130.268 110.066 130.568C109.749 130.762 109.481 131.003 109.263 131.29C109.035 131.584 108.87 131.889 108.767 132.205C108.66 132.537 108.635 132.841 108.691 133.116L107.126 133.523C107.005 132.796 107.141 132.052 107.534 131.291C107.918 130.537 108.514 129.913 109.323 129.419Z" fill="white"/>
<path d="M103.671 141.345C104.391 141.014 104.952 140.545 105.352 139.936C105.746 139.342 105.921 138.682 105.876 137.954L103.539 132.65L104.989 132.012L108.777 140.61L107.426 141.205L106.548 139.212C106.513 139.936 106.333 140.585 106.01 141.161C105.68 141.752 105.256 142.188 104.737 142.469C104.627 142.517 104.534 142.558 104.457 142.592C104.38 142.626 104.312 142.649 104.252 142.663L103.671 141.345Z" fill="white"/>
<path d="M95.3403 135.451C96.2409 135.196 97.0981 135.185 97.9118 135.416C98.7172 135.661 99.4102 136.083 99.9906 136.679C100.574 137.287 100.984 138.007 101.219 138.838C101.458 139.681 101.486 140.508 101.305 141.321C101.115 142.148 100.74 142.871 100.18 143.491C99.611 144.126 98.8822 144.569 97.9931 144.821C97.0925 145.076 96.2395 145.081 95.434 144.835C94.6203 144.604 93.9216 144.184 93.3379 143.576C92.7459 142.983 92.3306 142.265 92.092 141.422C91.8566 140.591 91.8339 139.762 92.0238 138.935C92.2054 138.122 92.5747 137.401 93.1317 136.769C93.692 136.149 94.4282 135.71 95.3403 135.451ZM99.6556 139.262C99.4791 138.639 99.1861 138.11 98.7767 137.678C98.3557 137.248 97.8776 136.947 97.3423 136.774C96.8103 136.613 96.2672 136.611 95.713 136.768C95.1588 136.925 94.699 137.217 94.3337 137.645C93.9568 138.076 93.7076 138.583 93.5858 139.166C93.4558 139.764 93.4791 140.375 93.6556 140.998C93.8321 141.622 94.1309 142.148 94.5518 142.578C94.9612 143.011 95.4393 143.312 95.9862 143.481C96.5215 143.654 97.0662 143.662 97.6204 143.505C98.1747 143.348 98.6328 143.05 98.9948 142.611C99.3601 142.183 99.6094 141.676 99.7427 141.089C99.8644 140.506 99.8354 139.897 99.6556 139.262Z" fill="white"/>
<path d="M91.3289 149.988L89.7627 150.225L88.1609 139.635C88.0837 139.125 87.965 138.821 87.8047 138.724C87.6443 138.627 87.4633 138.594 87.2616 138.624C87.0124 138.662 86.7787 138.722 86.5605 138.803C86.344 138.897 86.1631 138.985 86.0179 139.067L85.5749 137.824C85.8198 137.677 86.1148 137.542 86.46 137.417C86.8051 137.292 87.1142 137.209 87.3871 137.167C87.9922 137.076 88.4988 137.175 88.9068 137.465C89.3029 137.757 89.5476 138.212 89.6409 138.829L91.3289 149.988Z" fill="white"/>
<path d="M85.8241 150.688L84.2444 150.804L83.4604 140.122C83.4227 139.608 83.3276 139.296 83.1752 139.187C83.0228 139.078 82.8449 139.031 82.6414 139.046C82.3901 139.064 82.1525 139.106 81.9286 139.17C81.7056 139.247 81.5185 139.32 81.3673 139.392L81.0211 138.118C81.2765 137.991 81.5811 137.878 81.9349 137.78C82.2886 137.682 82.6031 137.623 82.8784 137.602C83.4888 137.558 83.9862 137.695 84.3707 138.016C84.7432 138.338 84.9523 138.81 84.998 139.432L85.8241 150.688Z" fill="white"/>
<path d="M72.5986 137.239C73.3734 137.329 74.086 137.539 74.7364 137.868C75.3854 138.209 75.9245 138.664 76.3537 139.233L75.6171 140.271C75.1388 139.709 74.6439 139.289 74.1324 139.012C73.6209 138.735 73.0851 138.564 72.5248 138.499C71.8812 138.424 71.3428 138.483 70.9099 138.674C70.4756 138.877 70.2307 139.217 70.1753 139.694C70.1352 140.04 70.2127 140.308 70.4079 140.5C70.5912 140.691 70.8673 140.862 71.2363 141.013C71.6039 141.177 72.0416 141.36 72.5495 141.564C73.4832 141.951 74.1848 142.358 74.6545 142.787C75.1109 143.227 75.2968 143.81 75.2124 144.537C75.11 145.419 74.6973 146.06 73.9745 146.459C73.2383 146.869 72.3457 147.013 71.2968 146.891C69.8902 146.728 68.8308 146.176 68.1185 145.236L68.9603 144.228C69.6003 145.064 70.4566 145.543 71.5294 145.668C71.8513 145.705 72.172 145.7 72.4916 145.653C72.8098 145.617 73.082 145.51 73.3082 145.331C73.5329 145.164 73.6661 144.901 73.7076 144.544C73.7588 144.103 73.6167 143.766 73.2812 143.534C72.9458 143.302 72.4441 143.044 71.7763 142.761C71.0966 142.477 70.5122 142.204 70.0231 141.941C69.5222 141.678 69.1474 141.369 68.8986 141.014C68.6499 140.659 68.5588 140.195 68.6252 139.623C68.7276 138.741 69.1417 138.088 69.8673 137.665C70.5916 137.254 71.502 137.112 72.5986 137.239Z" fill="white"/>
<path d="M63.7616 135.501C64.665 135.746 65.4062 136.176 65.985 136.793C66.5608 137.422 66.9483 138.148 67.1475 138.973C67.3468 139.798 67.3319 140.633 67.1029 141.478C66.8707 142.335 66.4678 143.066 65.8942 143.669C65.3206 144.272 64.6298 144.687 63.8219 144.916C63.0109 145.156 62.1478 145.153 61.2328 144.905C60.341 144.663 59.6198 144.25 59.0694 143.666C58.5043 143.09 58.1506 142.423 58.0083 141.663L59.6295 141.599C59.7451 142.09 59.98 142.508 60.3342 142.852C60.6853 143.209 61.1156 143.456 61.6253 143.594C62.1812 143.744 62.7301 143.738 63.2718 143.574C63.802 143.406 64.2693 143.104 64.6737 142.667C65.075 142.241 65.3635 141.703 65.5392 141.055C65.7118 140.418 65.7355 139.803 65.6103 139.209C65.4704 138.624 65.2153 138.12 64.8452 137.697C64.4634 137.27 63.9946 136.981 63.4386 136.831C63.0796 136.733 62.7206 136.705 62.3618 136.744C61.9914 136.781 61.6563 136.87 61.3566 137.013C61.0422 137.164 60.8041 137.354 60.6425 137.584L59.2707 136.727C59.7159 136.139 60.3498 135.727 61.1725 135.489C61.9835 135.249 62.8465 135.253 63.7616 135.501Z" fill="white"/>
<path d="M51.2318 139.614C51.9671 139.909 52.6934 139.992 53.4109 139.863C54.1126 139.74 54.7117 139.412 55.2082 138.878L57.4453 133.531L58.9065 134.143L55.2799 142.81L53.9183 142.241L54.7589 140.232C54.2099 140.704 53.6155 141.021 52.9755 141.183C52.3199 141.351 51.7116 141.344 51.1506 141.161C51.0399 141.115 50.9458 141.075 50.8683 141.043C50.7909 141.01 50.7268 140.977 50.676 140.943L51.2318 139.614Z" fill="white"/>
<path d="M49.7777 129.516C50.5819 129.995 51.1797 130.609 51.5712 131.359C51.9462 132.113 52.1165 132.906 52.0823 133.738C52.0419 134.579 51.8006 135.371 51.3586 136.114C50.9104 136.866 50.3289 137.456 49.6141 137.882C48.8829 138.313 48.0996 138.538 47.2641 138.557C46.4122 138.58 45.5892 138.356 44.7953 137.883C43.9911 137.404 43.4015 136.788 43.0265 136.034C42.6351 135.284 42.4595 134.488 42.4999 133.646C42.5239 132.808 42.76 132.013 43.2082 131.26C43.6502 130.518 44.2369 129.932 44.9681 129.501C45.6828 129.075 46.461 128.847 47.3027 128.817C48.1381 128.798 48.9631 129.031 49.7777 129.516ZM49.9759 135.269C50.3074 134.713 50.4897 134.137 50.5227 133.542C50.5454 132.941 50.4355 132.387 50.193 131.879C49.9444 131.382 49.5726 130.986 49.0777 130.691C48.5828 130.397 48.0545 130.264 47.4928 130.292C46.9207 130.315 46.3811 130.482 45.8738 130.795C45.3501 131.111 44.9224 131.548 44.5909 132.105C44.2593 132.662 44.0822 133.24 44.0595 133.841C44.0265 134.436 44.1364 134.991 44.3892 135.504C44.6317 136.012 45.0004 136.413 45.4953 136.708C45.9902 137.002 46.5216 137.13 47.0894 137.091C47.6512 137.063 48.1908 136.895 48.7084 136.589C49.2157 136.276 49.6382 135.837 49.9759 135.269Z" fill="white"/>
<path d="M36.4627 136.613L35.2129 135.64L41.7923 127.189C42.1093 126.782 42.2479 126.487 42.208 126.304C42.1681 126.121 42.0676 125.966 41.9067 125.841C41.7078 125.686 41.5037 125.558 41.2943 125.455C41.0776 125.363 40.8892 125.292 40.7293 125.244L41.3266 124.066C41.6012 124.143 41.9027 124.264 42.231 124.428C42.5593 124.593 42.8323 124.759 43.0501 124.929C43.533 125.305 43.8096 125.741 43.8799 126.237C43.9407 126.725 43.7794 127.215 43.3961 127.708L36.4627 136.613Z" fill="white"/>
<path d="M32.1758 133.119L31.0038 132.053L38.2093 124.13C38.5565 123.748 38.7171 123.464 38.6913 123.278C38.6655 123.093 38.5772 122.931 38.4262 122.794C38.2398 122.624 38.0461 122.481 37.8451 122.363C37.6361 122.254 37.4536 122.169 37.2979 122.109L37.9833 120.98C38.2513 121.078 38.5427 121.221 38.8575 121.41C39.1723 121.599 39.4318 121.786 39.636 121.972C40.0887 122.384 40.3312 122.839 40.3635 123.339C40.3868 123.831 40.1886 124.307 39.7687 124.769L32.1758 133.119Z" fill="white"/>
<path d="M32.9611 114.462C33.4315 115.084 33.7725 115.744 33.9839 116.442C34.1858 117.147 34.2293 117.851 34.1144 118.555L32.8551 118.739C32.9315 118.005 32.893 117.357 32.7397 116.796C32.5863 116.235 32.3396 115.729 31.9995 115.279C31.6087 114.763 31.1945 114.414 30.757 114.233C30.31 114.06 29.895 114.118 29.5121 114.407C29.2345 114.617 29.0938 114.859 29.0901 115.132C29.0791 115.396 29.1463 115.714 29.2917 116.085C29.4276 116.464 29.5973 116.908 29.8008 117.416C30.1668 118.357 30.3571 119.146 30.3715 119.782C30.3691 120.416 30.076 120.953 29.4921 121.395C28.7837 121.93 28.0355 122.075 27.2473 121.828C26.4424 121.579 25.7215 121.034 25.0846 120.191C24.2307 119.062 23.8975 117.915 24.085 116.75L25.3951 116.662C25.2335 117.702 25.4783 118.653 26.1297 119.514C26.325 119.772 26.5503 120.001 26.8055 120.199C27.0511 120.405 27.3168 120.527 27.6025 120.567C27.8787 120.614 28.1604 120.529 28.4475 120.312C28.8017 120.044 28.9468 119.708 28.8829 119.305C28.8189 118.903 28.6585 118.362 28.4015 117.684C28.1372 116.996 27.9309 116.385 27.7824 115.85C27.6267 115.306 27.5913 114.821 27.676 114.396C27.7608 113.971 28.0329 113.585 28.4924 113.237C29.2007 112.702 29.9586 112.55 30.7659 112.782C31.5636 113.022 32.2953 113.582 32.9611 114.462Z" fill="white"/>
<path d="M28.1117 106.892C28.5609 107.713 28.7635 108.546 28.7195 109.391C28.665 110.241 28.4093 111.024 27.9524 111.739C27.4955 112.454 26.8828 113.022 26.1143 113.442C25.3352 113.868 24.5296 114.083 23.6973 114.087C22.8651 114.091 22.0867 113.881 21.3621 113.457C20.6271 113.038 20.032 112.413 19.5771 111.581C19.1336 110.771 18.932 109.964 18.9722 109.163C18.9961 108.356 19.2327 107.639 19.6821 107.01L20.8514 108.135C20.577 108.558 20.4383 109.017 20.435 109.512C20.4213 110.011 20.5411 110.493 20.7945 110.956C21.071 111.462 21.4559 111.853 21.9495 112.13C22.4373 112.397 22.979 112.524 23.5747 112.513C24.1599 112.507 24.7472 112.343 25.3368 112.021C25.9158 111.704 26.376 111.295 26.7172 110.794C27.0422 110.288 27.2293 109.755 27.2784 109.194C27.3218 108.623 27.2052 108.085 26.9288 107.58C26.7503 107.254 26.5225 106.975 26.2454 106.743C25.9626 106.501 25.6659 106.322 25.3555 106.204C25.0288 106.082 24.7266 106.042 24.4489 106.085L24.1165 104.502C24.8491 104.416 25.5858 104.587 26.3266 105.017C27.0617 105.435 27.6567 106.06 28.1117 106.892Z" fill="white"/>
<path d="M16.4568 100.653C16.7519 101.388 17.194 101.97 17.783 102.4C18.3566 102.822 19.0078 103.028 19.7367 103.018L25.1475 100.941L25.7153 102.42L16.9437 105.788L16.4146 104.41L18.4479 103.629C17.7268 103.559 17.0868 103.348 16.5278 102.997C15.9534 102.639 15.5384 102.194 15.2828 101.663C15.2398 101.551 15.2032 101.456 15.1731 101.377C15.143 101.299 15.1228 101.229 15.1125 101.169L16.4568 100.653Z" fill="white"/>
<path d="M22.7549 92.6731C22.9653 93.5852 22.9351 94.4419 22.6643 95.2433C22.3791 96.0357 21.9244 96.707 21.3001 97.2574C20.6642 97.8106 19.9253 98.1842 19.0834 98.3784C18.2298 98.5753 17.4019 98.5631 16.5996 98.3418C15.7829 98.1115 15.0787 97.7013 14.4869 97.1112C13.8807 96.5121 13.4738 95.7624 13.2661 94.862C13.0557 93.95 13.0931 93.0978 13.3783 92.3054C13.6491 91.504 14.1025 90.8268 14.7384 90.2737C15.36 89.7116 16.0975 89.3321 16.9511 89.1352C17.793 88.941 18.6223 88.959 19.439 89.1893C20.2412 89.4107 20.9441 89.815 21.5476 90.4024C22.1394 90.9925 22.5418 91.7494 22.7549 92.6731ZM18.7368 96.7958C19.3682 96.6502 19.9101 96.3835 20.3626 95.9959C20.8123 95.5966 21.1366 95.1339 21.3354 94.6077C21.5226 94.0842 21.5514 93.5419 21.4219 92.9806C21.2924 92.4194 21.0231 91.9458 20.6139 91.5599C20.202 91.1623 19.7078 90.8884 19.1312 90.7381C18.5403 90.5789 17.9291 90.5721 17.2977 90.7178C16.6663 90.8634 16.1257 91.1359 15.676 91.5352C15.2235 91.9228 14.8992 92.3856 14.7031 92.9234C14.5043 93.4496 14.4696 93.9933 14.5991 94.5545C14.7286 95.1158 15.0038 95.588 15.4247 95.9712C15.8339 96.3571 16.3281 96.631 16.9073 96.793C17.4838 96.9432 18.0937 96.9442 18.7368 96.7958Z" fill="white"/>
<path d="M8.43669 88.1097L8.27204 86.5343L18.924 85.421C19.4372 85.3674 19.746 85.2627 19.8504 85.107C19.9548 84.9514 19.9964 84.7721 19.9752 84.5692C19.949 84.3185 19.9002 84.0823 19.8287 83.8605C19.7453 83.64 19.6657 83.4553 19.5898 83.3064L20.8526 82.921C20.9875 83.1724 21.1094 83.4733 21.2184 83.8239C21.3275 84.1745 21.3963 84.487 21.425 84.7615C21.4886 85.3702 21.3661 85.8716 21.0574 86.2659C20.7475 86.6481 20.2822 86.8717 19.6616 86.9366L8.43669 88.1097Z" fill="white"/>
<path d="M7.98373 82.5882L7.94092 81.0048L18.647 80.7153C19.1628 80.7014 19.4788 80.6208 19.5948 80.4736C19.7109 80.3264 19.7662 80.1509 19.7606 79.947C19.7538 79.695 19.7234 79.4558 19.6692 79.2292C19.6031 79.0029 19.5379 78.8126 19.4737 78.6582L20.7624 78.3713C20.8775 78.6323 20.9759 78.9417 21.0576 79.2997C21.1393 79.6576 21.1839 79.9745 21.1914 80.2504C21.2079 80.8622 21.0471 81.3527 20.709 81.722C20.3705 82.0792 19.8894 82.2663 19.2656 82.2832L7.98373 82.5882Z" fill="white"/>
<path d="M22.0023 70.03C21.8766 70.7998 21.6344 71.5019 21.2755 72.1364C20.9048 72.769 20.4252 73.2865 19.8367 73.689L18.8339 72.9052C19.4182 72.4535 19.8605 71.9785 20.1607 71.4803C20.4608 70.9821 20.6563 70.4547 20.7471 69.8981C20.8515 69.2586 20.8181 68.7181 20.6469 68.2768C20.4639 67.8335 20.1355 67.5733 19.6618 67.496C19.3183 67.4399 19.0463 67.505 18.8457 67.6911C18.6471 67.8654 18.4635 68.1333 18.2951 68.4949C18.1148 68.8546 17.9111 69.2834 17.6839 69.7813C17.255 70.6961 16.8154 71.3782 16.3652 71.8276C15.905 72.2632 15.3137 72.422 14.5913 72.3041C13.7149 72.1611 13.0939 71.7194 12.7284 70.9788C12.353 70.2245 12.2503 69.3263 12.4204 68.2841C12.6484 66.8865 13.2486 65.8537 14.2209 65.1856L15.1886 66.073C14.3246 66.6737 13.8056 67.507 13.6317 68.5729C13.5795 68.8927 13.5697 69.2133 13.6024 69.5347C13.6232 69.8543 13.7178 70.1311 13.8863 70.3653C14.043 70.5976 14.2989 70.7427 14.6542 70.8007C15.0924 70.8722 15.4353 70.7457 15.6827 70.4213C15.9302 70.097 16.2107 69.6077 16.5241 68.9537C16.8394 68.2878 17.1393 67.7166 17.4238 67.2402C17.7101 66.752 18.0364 66.3918 18.4026 66.1597C18.7687 65.9277 19.236 65.858 19.8045 65.9508C20.6809 66.0938 21.3137 66.5375 21.7029 67.2819C22.0803 68.0243 22.1801 68.9404 22.0023 70.03Z" fill="white"/>
<path d="M24.122 61.3174C23.8363 62.2087 23.3722 62.9295 22.7296 63.4796C22.0756 64.0261 21.3321 64.38 20.4991 64.5415C19.6661 64.7029 18.8324 64.65 17.9982 64.3826C17.1526 64.1116 16.4417 63.6758 15.8655 63.0753C15.2893 62.4748 14.9054 61.7658 14.7137 60.9483C14.5107 60.1271 14.5538 59.2652 14.8431 58.3624C15.1251 57.4825 15.5705 56.7809 16.1792 56.2578C16.7802 55.7195 17.4633 55.3966 18.2287 55.2891L18.219 56.9115C17.723 57.0046 17.2947 57.2202 16.9343 57.5583C16.5625 57.8928 16.296 58.3114 16.1349 58.8142C15.9591 59.3627 15.9408 59.9113 16.0799 60.46C16.2228 60.9972 16.5035 61.4778 16.9221 61.9018C17.3292 62.3221 17.8527 62.6348 18.4927 62.8399C19.1212 63.0414 19.7347 63.0931 20.3332 62.9951C20.9239 62.882 21.4392 62.6502 21.8791 62.2997C22.3228 61.9379 22.6325 61.4827 22.8083 60.9342C22.9218 60.5799 22.967 60.2227 22.9438 59.8624C22.9244 59.4907 22.8502 59.1519 22.7214 58.846C22.5849 58.525 22.4056 58.2785 22.1835 58.1065L23.1016 56.7752C23.6687 57.2468 24.052 57.8989 24.2514 58.7315C24.4545 59.5527 24.4113 60.4146 24.122 61.3174Z" fill="white"/>
<path d="M20.6499 48.47C20.3198 49.1901 20.2017 49.9115 20.2957 50.6344C20.3841 51.3412 20.6827 51.9556 21.1916 52.4775L26.4231 54.9724L25.7413 56.4022L17.2604 52.3576L17.8957 51.0253L19.8616 51.9629C19.4162 51.3915 19.1284 50.7823 18.9982 50.1352C18.8624 49.4722 18.8994 48.865 19.1092 48.3136C19.1608 48.2053 19.2047 48.1132 19.2409 48.0374C19.2771 47.9616 19.3135 47.8992 19.3501 47.8502L20.6499 48.47Z" fill="white"/>
<path d="M30.7952 47.4939C30.2782 48.2741 29.6358 48.8417 28.8679 49.1967C28.0968 49.535 27.2967 49.6671 26.4678 49.5929C25.6288 49.512 24.8492 49.233 24.129 48.7558C23.3987 48.2719 22.8379 47.6628 22.4464 46.9283C22.0516 46.1773 21.8646 45.384 21.8855 44.5486C21.9031 43.6965 22.1671 42.8854 22.6774 42.1151C23.1944 41.3348 23.8385 40.7755 24.6097 40.4372C25.3775 40.0823 26.1809 39.9452 27.0199 40.026C27.8554 40.0902 28.6383 40.3643 29.3686 40.8481C30.0888 41.3254 30.6464 41.9395 31.0412 42.6906C31.4327 43.425 31.623 44.2132 31.612 45.0553C31.5911 45.8908 31.3188 46.7036 30.7952 47.4939ZM25.0388 47.4153C25.579 47.7732 26.1454 47.9829 26.738 48.0445C27.3372 48.0961 27.8961 48.0129 28.4147 47.7951C28.9233 47.5707 29.3366 47.2184 29.6548 46.7383C29.9729 46.2581 30.1312 45.7368 30.1296 45.1743C30.1347 44.6019 29.9933 44.0548 29.7056 43.533C29.4146 42.9947 28.9989 42.5466 28.4588 42.1886C27.9186 41.8307 27.3489 41.626 26.7497 41.5744C26.1571 41.5129 25.5982 41.596 25.0729 41.8238C24.5544 42.0416 24.136 42.3905 23.8178 42.8707C23.4997 43.3509 23.3464 43.8755 23.358 44.4446C23.3596 45.0071 23.5009 45.5541 23.782 46.0859C24.0697 46.6076 24.4886 47.0507 25.0388 47.4153Z" fill="white"/>
<path d="M24.3476 33.8327L25.3792 32.6307L33.5064 39.6059C33.898 39.942 34.1862 40.0944 34.371 40.0633C34.5559 40.0322 34.7147 39.9392 34.8476 39.7844C35.0117 39.5932 35.1498 39.3955 35.2619 39.1912C35.3648 38.9791 35.4443 38.7943 35.5004 38.6369L36.648 39.2897C36.558 39.5604 36.4231 39.8557 36.2433 40.1758C36.0634 40.4959 35.8837 40.7606 35.7039 40.9701C35.3053 41.4345 34.8568 41.69 34.3582 41.7365C33.8675 41.7739 33.3854 41.5894 32.9119 41.1831L24.3476 33.8327Z" fill="white"/>
<path d="M27.9787 29.7743L29.099 28.6545L36.6706 36.2291C37.0354 36.594 37.3112 36.7681 37.4978 36.7511C37.6845 36.7342 37.85 36.6536 37.9943 36.5094C38.1725 36.3312 38.3253 36.1446 38.4526 35.9494C38.5714 35.7458 38.6648 35.5677 38.7327 35.4149L39.8272 36.1534C39.7168 36.4164 39.5598 36.7006 39.3561 37.006C39.1524 37.3115 38.9529 37.5618 38.7577 37.7569C38.3249 38.1895 37.8581 38.4101 37.3575 38.4184C36.8653 38.4183 36.3987 38.1976 35.9576 37.7563L27.9787 29.7743Z" fill="white"/>
<path d="M46.5806 31.4131C45.9365 31.8531 45.2611 32.1621 44.5542 32.3399C43.8405 32.5079 43.135 32.5176 42.4376 32.3692L42.3133 31.1025C43.0435 31.2139 43.6924 31.2065 44.2602 31.0802C44.8279 30.9539 45.3446 30.7316 45.8102 30.4134C46.3452 30.0478 46.7135 29.6508 46.9149 29.2225C47.1096 28.7842 47.0715 28.3669 46.8007 27.9706C46.6044 27.6833 46.3697 27.5312 46.0965 27.5144C45.8333 27.4908 45.5127 27.5427 45.1347 27.6702C44.75 27.7878 44.299 27.936 43.7818 28.115C42.8236 28.4356 42.0265 28.5878 41.3906 28.5718C40.7578 28.5391 40.235 28.2206 39.822 27.6162C39.321 26.883 39.2125 26.1287 39.4965 25.3533C39.7836 24.5612 40.3632 23.8672 41.235 23.2714C42.4042 22.4725 43.5659 22.1946 44.7203 22.4377L44.7454 23.7504C43.7145 23.5392 42.7532 23.7383 41.8615 24.3476C41.594 24.5304 41.3551 24.7445 41.1449 24.9899C40.9279 25.2254 40.7928 25.4849 40.7394 25.7684C40.6793 26.042 40.7508 26.3275 40.9539 26.6247C41.2044 26.9913 41.5325 27.1523 41.938 27.1077C42.3436 27.0631 42.8912 26.9287 43.581 26.7044C44.2806 26.4734 44.901 26.2966 45.4421 26.1739C45.9932 26.0444 46.479 26.0322 46.8996 26.1372C47.3201 26.2422 47.6929 26.5325 48.0179 27.0081C48.5189 27.7413 48.6342 28.5055 48.3637 29.3007C48.0864 30.0861 47.4921 30.7902 46.5806 31.4131Z" fill="white"/>
<path d="M54.3487 26.9243C53.5068 27.3332 52.665 27.4953 51.8234 27.4104C50.9765 27.3148 50.207 27.0215 49.515 26.5305C48.823 26.0395 48.2856 25.4 47.9029 24.612C47.515 23.8132 47.3392 22.9981 47.3756 22.1666C47.4121 21.3352 47.6597 20.5679 48.1187 19.8647C48.5724 19.1508 49.2256 18.5868 50.0783 18.1726C50.9095 17.769 51.7244 17.6066 52.5232 17.6856C53.3275 17.7485 54.0328 18.0197 54.6391 18.4989L53.459 19.6124C53.0491 19.3178 52.5975 19.157 52.104 19.1298C51.6053 19.0919 51.1185 19.1882 50.6436 19.4189C50.1254 19.6705 49.716 20.0361 49.4153 20.5157C49.1254 20.99 48.9716 21.5249 48.954 22.1204C48.9312 22.7052 49.0666 23.2998 49.3601 23.9043C49.6485 24.4979 50.0347 24.9774 50.5189 25.3425C51.0086 25.6917 51.5321 25.9043 52.0894 25.9805C52.6575 26.0515 53.2006 25.9612 53.7187 25.7095C54.0533 25.547 54.3429 25.333 54.5875 25.0675C54.8429 24.7967 55.0367 24.5091 55.169 24.2047C55.3069 23.8843 55.3614 23.5844 55.3324 23.305L56.9293 23.0497C56.9798 23.7855 56.7729 24.513 56.3084 25.2322C55.8547 25.9461 55.2015 26.5102 54.3487 26.9243Z" fill="white"/>
<path d="M61.3136 15.5098C60.5649 15.7684 59.9617 16.1813 59.5039 16.7486C59.0537 17.3007 58.8157 17.941 58.7898 18.6695L60.5991 24.1758L59.0943 24.6703L56.1612 15.7438L57.5634 15.2831L58.2433 17.3522C58.3488 16.6355 58.5906 16.0066 58.9686 15.4656C59.3543 14.9094 59.8189 14.5167 60.3625 14.2876C60.4765 14.2501 60.5734 14.2183 60.6532 14.192C60.733 14.1658 60.8033 14.149 60.8641 14.1417L61.3136 15.5098Z" fill="white"/>
<path d="M69.0078 22.183C68.0864 22.3477 67.2322 22.2749 66.4453 21.9646C65.6681 21.6403 65.0202 21.1527 64.5015 20.5018C63.9808 19.8392 63.6444 19.0826 63.4923 18.2321C63.3381 17.3697 63.3915 16.5434 63.6525 15.7532C63.9232 14.949 64.3679 14.266 64.9867 13.7043C65.6152 13.1287 66.3842 12.7596 67.2938 12.597C68.2152 12.4322 69.0645 12.512 69.8417 12.8363C70.6286 13.1466 71.2824 13.6331 71.8032 14.2958C72.3337 14.9446 72.676 15.7001 72.8302 16.5624C72.9823 17.4129 72.923 18.2403 72.6523 19.0445C72.3913 19.8348 71.9525 20.5166 71.3358 21.0901C70.717 21.6518 69.941 22.0161 69.0078 22.183ZM65.0902 17.9646C65.2042 18.6025 65.4436 19.1571 65.8082 19.6282C66.1846 20.0973 66.6306 20.4442 67.1462 20.669C67.6597 20.8819 68.2 20.9377 68.767 20.8363C69.334 20.7349 69.8204 20.4895 70.2262 20.1C70.6438 19.7084 70.9419 19.2284 71.1207 18.6601C71.3092 18.0778 71.3464 17.4677 71.2323 16.8298C71.1183 16.192 70.873 15.6385 70.4966 15.1694C70.132 14.6982 69.6859 14.3513 69.1585 14.1287C68.6429 13.9039 68.1016 13.8422 67.5346 13.9436C66.9676 14.045 66.4822 14.2964 66.0786 14.6977C65.6728 15.0872 65.3746 15.5671 65.184 16.1376C65.0053 16.7059 64.974 17.3149 65.0902 17.9646Z" fill="white"/>
<path d="M74.2876 8.10147L75.8693 8.01598L76.4473 18.7104C76.4752 19.2256 76.5642 19.5393 76.7145 19.6513C76.8648 19.7634 77.0418 19.8139 77.2455 19.8029C77.4971 19.7893 77.7354 19.7524 77.9605 19.6921C78.1849 19.6199 78.3734 19.5496 78.526 19.4813L78.8475 20.7618C78.5898 20.8839 78.2831 20.9906 77.9275 21.0819C77.5719 21.1733 77.2563 21.2264 76.9807 21.2413C76.3696 21.2743 75.8749 21.1268 75.4967 20.7987C75.1304 20.47 74.9304 19.9941 74.8967 19.371L74.2876 8.10147Z" fill="white"/>
<path d="M80.2248 7.92167L81.8082 7.96444L81.519 18.6705C81.5051 19.1864 81.5685 19.5062 81.7092 19.63C81.8499 19.7539 82.0222 19.8185 82.2261 19.8241C82.478 19.8309 82.7186 19.8133 82.9478 19.7715C83.1773 19.7177 83.3709 19.6629 83.5285 19.6071L83.7454 20.9095C83.4785 21.0103 83.1642 21.0918 82.8024 21.1541C82.4406 21.2164 82.1217 21.2438 81.8458 21.2363C81.2341 21.2198 80.7529 21.0327 80.4025 20.6751C80.064 20.3178 79.9032 19.8273 79.92 19.2036L80.2248 7.92167Z" fill="white"/>
<path d="M91.636 22.5193C90.8734 22.3557 90.1841 22.079 89.5681 21.6891C88.9547 21.2876 88.4616 20.7829 88.0888 20.1752L88.9212 19.2124C89.3435 19.8184 89.796 20.2837 90.2787 20.6081C90.7614 20.9326 91.2784 21.1539 91.8299 21.2722C92.4635 21.4081 93.0049 21.4015 93.4542 21.2525C93.9059 21.0916 94.1822 20.7766 94.2828 20.3072C94.3558 19.967 94.3043 19.6921 94.1284 19.4825C93.9641 19.2754 93.7056 19.0788 93.3528 18.8927C93.0025 18.6948 92.5843 18.4701 92.0983 18.2186C91.2058 17.7449 90.5463 17.2721 90.1198 16.8001C89.7075 16.3189 89.5782 15.7205 89.7317 15.0048C89.9179 14.1365 90.3899 13.5382 91.1476 13.2098C91.9196 12.8722 92.8219 12.8142 93.8544 13.0356C95.2389 13.3326 96.2407 13.9832 96.8599 14.9874L95.9256 15.91C95.3684 15.0173 94.5619 14.4577 93.5059 14.2311C93.1891 14.1632 92.8694 14.1376 92.5467 14.1543C92.2265 14.1592 91.9453 14.24 91.7031 14.3967C91.4633 14.5417 91.3057 14.7901 91.2302 15.1421C91.1371 15.5762 91.2464 15.9249 91.5581 16.1882C91.8699 16.4514 92.3446 16.7557 92.9823 17.1012C93.6318 17.4491 94.1874 17.7769 94.6491 18.0846C95.1226 18.3948 95.4662 18.7385 95.6798 19.1157C95.8934 19.4929 95.9399 19.9631 95.8191 20.5263C95.6328 21.3945 95.1583 22.0046 94.3955 22.3564C93.6353 22.6966 92.7155 22.7508 91.636 22.5193Z" fill="white"/>
<path d="M100.165 25.03C99.289 24.7013 98.5917 24.2027 98.0735 23.5341C97.5595 22.8543 97.2421 22.0945 97.1214 21.2546C97.0006 20.4147 97.0941 19.5846 97.4017 18.7644C97.7136 17.933 98.1834 17.2441 98.8113 16.6978C99.4391 16.1515 100.166 15.8025 100.992 15.6509C101.822 15.488 102.681 15.573 103.568 15.906C104.433 16.2305 105.113 16.7094 105.605 17.3429C106.114 17.9693 106.403 18.6674 106.473 19.4371L104.853 19.3485C104.784 18.8485 104.59 18.4102 104.27 18.0338C103.954 17.6462 103.549 17.3596 103.054 17.1742C102.515 16.9719 101.968 16.9269 101.413 17.0393C100.87 17.1558 100.376 17.4128 99.932 17.8102C99.4924 18.1964 99.1545 18.7041 98.9185 19.3333C98.6868 19.9513 98.6053 20.5616 98.674 21.1641C98.7583 21.7596 98.9647 22.2856 99.2933 22.7421C99.6332 23.2028 100.073 23.5343 100.612 23.7365C100.96 23.8672 101.315 23.9297 101.676 23.9241C102.048 23.9227 102.39 23.8652 102.702 23.7514C103.029 23.6307 103.284 23.4635 103.467 23.2501L104.752 24.2319C104.253 24.7754 103.583 25.1265 102.742 25.2851C101.912 25.448 101.053 25.363 100.165 25.03Z" fill="white"/>
<path d="M113.199 22.185C112.496 21.8209 111.781 21.6685 111.054 21.7278C110.344 21.7822 109.716 22.0511 109.171 22.5344L106.428 27.6407L105.033 26.8912L109.478 18.6134L110.779 19.3118L109.748 21.2306C110.34 20.813 110.963 20.5547 111.615 20.4556C112.284 20.3517 112.889 20.4177 113.429 20.6536C113.535 20.7103 113.625 20.7586 113.699 20.7983C113.773 20.8381 113.834 20.8774 113.881 20.9164L113.199 22.185Z" fill="white"/>
<path d="M113.685 32.3535C112.93 31.8003 112.394 31.1318 112.075 30.3481C111.774 29.5618 111.679 28.7564 111.793 27.9319C111.913 27.0977 112.228 26.3322 112.739 25.6352C113.257 24.9286 113.892 24.3971 114.644 24.0407C115.413 23.6817 116.214 23.5324 117.047 23.5927C117.898 23.6504 118.696 23.9523 119.441 24.4985C120.196 25.0517 120.724 25.7214 121.026 26.5077C121.344 27.2914 121.443 28.1004 121.323 28.9346C121.219 29.7662 120.909 30.5353 120.391 31.2419C119.88 31.9388 119.241 32.4668 118.472 32.8258C117.72 33.1822 116.923 33.3351 116.083 33.2844C115.249 33.2241 114.45 32.9138 113.685 32.3535ZM114.035 26.6072C113.652 27.1299 113.416 27.6858 113.327 28.2748C113.247 28.871 113.304 29.4332 113.497 29.9615C113.697 30.4801 114.029 30.9096 114.494 31.25C114.958 31.5905 115.472 31.7732 116.034 31.7981C116.605 31.8301 117.158 31.7147 117.693 31.452C118.245 31.1866 118.712 30.7926 119.095 30.2699C119.478 29.7472 119.709 29.1878 119.789 28.5916C119.878 28.0026 119.822 27.4404 119.619 26.905C119.426 26.3767 119.097 25.9424 118.632 25.6019C118.168 25.2615 117.651 25.0836 117.082 25.0684C116.52 25.0434 115.967 25.1588 115.422 25.4145C114.888 25.6773 114.425 26.0749 114.035 26.6072Z" fill="white"/>
<path d="M127.641 26.556L128.793 27.6428L121.445 35.4342C121.091 35.8096 120.925 36.0904 120.947 36.2765C120.97 36.4626 121.055 36.6256 121.204 36.7656C121.387 36.9385 121.578 37.0857 121.777 37.2072C121.984 37.32 122.165 37.4081 122.319 37.4714L121.614 38.5872C121.347 38.4846 121.059 38.336 120.747 38.1414C120.436 37.9468 120.18 37.7548 119.979 37.5654C119.534 37.1455 119.3 36.6855 119.277 36.1853C119.262 35.6934 119.469 35.2204 119.897 34.7665L127.641 26.556Z" fill="white"/>
<path d="M131.532 30.3791L132.598 31.5506L124.678 38.7592C124.296 39.1065 124.109 39.3738 124.117 39.5611C124.126 39.7484 124.198 39.9174 124.336 40.0683C124.505 40.2547 124.685 40.416 124.874 40.5523C125.071 40.6806 125.245 40.7822 125.394 40.8572L124.605 41.9159C124.348 41.7933 124.071 41.6231 123.776 41.4053C123.48 41.1876 123.24 40.9766 123.054 40.7725C122.642 40.3199 122.443 39.8433 122.459 39.3428C122.482 38.8512 122.724 38.3954 123.185 37.9754L131.532 30.3791Z" fill="white"/>
<path d="M129.049 48.9224C128.64 48.2584 128.364 47.569 128.219 46.8545C128.085 46.1337 128.109 45.4285 128.29 44.7389L129.561 44.6746C129.416 45.3988 129.392 46.0473 129.492 46.6204C129.591 47.1934 129.789 47.7201 130.084 48.2002C130.424 48.752 130.803 49.1385 131.222 49.36C131.65 49.5752 132.069 49.5569 132.478 49.3052C132.774 49.1226 132.937 48.8954 132.967 48.6233C133.003 48.3615 132.966 48.0388 132.856 47.6552C132.757 47.2654 132.63 46.8079 132.476 46.2828C132.201 45.3105 132.087 44.5071 132.133 43.8727C132.196 43.2422 132.538 42.7349 133.162 42.351C133.918 41.8852 134.676 41.8125 135.437 42.1329C136.215 42.4572 136.881 43.0688 137.435 43.9679C138.177 45.1735 138.4 46.3471 138.103 47.4887L136.79 47.4516C137.05 46.4319 136.897 45.4623 136.33 44.5427C136.16 44.2669 135.958 44.0182 135.722 43.7966C135.497 43.5687 135.245 43.4215 134.964 43.3548C134.693 43.2818 134.405 43.3397 134.099 43.5285C133.72 43.7614 133.544 44.0815 133.57 44.4887C133.595 44.8959 133.703 45.4493 133.895 46.1489C134.092 46.8587 134.24 47.4867 134.337 48.033C134.44 48.5896 134.429 49.0754 134.304 49.4906C134.18 49.9057 133.872 50.2644 133.382 50.5665C132.625 51.0323 131.857 51.1113 131.075 50.8035C130.304 50.4894 129.628 49.8624 129.049 48.9224Z" fill="white"/>
<path d="M133.185 56.9548C132.817 56.0941 132.696 55.2455 132.821 54.4089C132.957 53.5676 133.287 52.8132 133.811 52.1456C134.335 51.4779 134.999 50.9719 135.805 50.6275C136.621 50.2784 137.444 50.1421 138.273 50.2184C139.101 50.2948 139.856 50.5791 140.536 51.0713C141.227 51.5587 141.759 52.2383 142.132 53.11C142.495 53.9596 142.618 54.7814 142.501 55.5755C142.4 56.3758 142.095 57.0673 141.587 57.6498L140.532 56.4175C140.845 56.0223 141.028 55.5789 141.079 55.0873C141.141 54.5911 141.068 54.1002 140.86 53.6147C140.634 53.0851 140.288 52.6585 139.824 52.3351C139.364 52.0227 138.837 51.8434 138.243 51.7972C137.66 51.7463 137.06 51.8529 136.442 52.1171C135.835 52.3766 135.337 52.7393 134.949 53.2054C134.577 53.6778 134.339 54.1905 134.237 54.7434C134.138 55.3074 134.202 55.8542 134.429 56.3839C134.575 56.7259 134.775 57.0255 135.028 57.2825C135.287 57.5506 135.565 57.7581 135.862 57.9049C136.176 58.058 136.473 58.1268 136.753 58.1113L136.931 59.7186C136.194 59.7337 135.477 59.492 134.781 58.9935C134.09 58.506 133.558 57.8264 133.185 56.9548Z" fill="white"/>
<path d="M144.163 64.1486C143.939 63.389 143.553 62.7677 143.007 62.2848C142.476 61.8102 141.847 61.5435 141.121 61.4848L135.538 63.0437L135.112 61.5181L144.162 58.9908L144.559 60.4125L142.461 60.9983C143.173 61.136 143.79 61.4059 144.313 61.808C144.852 62.2183 145.223 62.7002 145.427 63.2536C145.459 63.3692 145.487 63.4675 145.51 63.5484C145.532 63.6293 145.546 63.7002 145.55 63.7612L144.163 64.1486Z" fill="white"/>
<path d="M137.168 71.6237C137.046 70.6957 137.158 69.8458 137.504 69.074C137.864 68.3125 138.38 67.6876 139.054 67.1993C139.74 66.7095 140.511 66.4081 141.368 66.2952C142.236 66.1807 143.059 66.272 143.837 66.5689C144.628 66.8762 145.29 67.3518 145.822 67.9957C146.369 68.65 146.702 69.4351 146.823 70.3512C146.945 71.2792 146.826 72.1239 146.467 72.8854C146.121 73.6573 145.605 74.2881 144.919 74.7779C144.247 75.2781 143.476 75.5854 142.608 75.6999C141.751 75.8128 140.927 75.7156 140.136 75.4083C139.359 75.1114 138.698 74.6417 138.153 73.9994C137.62 73.3555 137.292 72.5636 137.168 71.6237ZM141.562 67.9037C140.919 67.9884 140.354 68.202 139.867 68.5446C139.381 68.8992 139.014 69.3288 138.766 69.8336C138.53 70.3368 138.449 70.8739 138.525 71.4449C138.6 72.016 138.823 72.5131 139.193 72.9364C139.565 73.3715 140.031 73.6913 140.591 73.896C141.164 74.111 141.771 74.1761 142.414 74.0914C143.056 74.0067 143.62 73.7871 144.106 73.4326C144.594 73.09 144.961 72.6603 145.207 72.1437C145.455 71.6389 145.542 71.101 145.467 70.53C145.391 69.9589 145.162 69.4625 144.78 69.0409C144.41 68.6177 143.944 68.2978 143.383 68.0813C142.823 67.8766 142.216 67.8174 141.562 67.9037Z" fill="white"/>
<path d="M150.997 77.6939L151.009 79.2778L140.3 79.3606C139.784 79.3645 139.466 79.439 139.347 79.5839C139.228 79.7288 139.17 79.9033 139.171 80.1073C139.173 80.3593 139.199 80.5991 139.249 80.8267C139.311 81.0542 139.372 81.2458 139.433 81.4013L138.139 81.6633C138.029 81.4001 137.937 81.0889 137.862 80.7294C137.787 80.37 137.749 80.0523 137.747 79.7763C137.742 79.1643 137.912 78.677 138.257 78.3143C138.603 77.9636 139.087 77.7859 139.711 77.781L150.997 77.6939Z" fill="white"/>
</svg>
